<svg xmlns="http://www.w3.org/2000/svg" viewBox="0 0 400 300" preserveAspectRatio="xMidYMid slice"><rect width="400" height="300" fill="#FFF3EA"/><circle cx="330" cy="62" r="44" fill="#FFC857" opacity=".3"/><circle cx="330" cy="62" r="30" fill="#FFC857"/><g transform="translate(60 70) scale(0.9)" fill="#FFFFFF"><circle cx="0" cy="0" r="16"/><circle cx="20" cy="-8" r="20"/><circle cx="44" cy="0" r="15"/><rect x="-16" y="0" width="76" height="16" rx="8"/></g><path d="M0 222 Q90 162 200 204 T400 192 V300 H0Z" fill="#8CCB9F"/><path d="M0 256 Q120 216 240 244 T400 230 V300 H0Z" fill="#5BA67A"/><g transform="translate(90 250) scale(0.8)"><rect x="-6" y="-50" width="12" height="50" rx="4" fill="#9A6A4F"/><circle cx="0" cy="-78" r="36" fill="#5BA67A"/><circle cx="-24" cy="-58" r="22" fill="#5BA67A"/><circle cx="24" cy="-60" r="22" fill="#5BA67A"/><circle cx="-10" cy="-88" r="14" fill="#8CCB9F" opacity=".7"/></g><g transform="translate(300 256) scale(1.1)"><rect x="-6" y="-50" width="12" height="50" rx="4" fill="#9A6A4F"/><circle cx="0" cy="-78" r="36" fill="#5BA67A"/><circle cx="-24" cy="-58" r="22" fill="#5BA67A"/><circle cx="24" cy="-60" r="22" fill="#5BA67A"/><circle cx="-10" cy="-88" r="14" fill="#8CCB9F" opacity=".7"/></g><g transform="translate(210 240) scale(0.6)"><rect x="-6" y="-50" width="12" height="50" rx="4" fill="#9A6A4F"/><circle cx="0" cy="-78" r="36" fill="#8CCB9F"/><circle cx="-24" cy="-58" r="22" fill="#8CCB9F"/><circle cx="24" cy="-60" r="22" fill="#8CCB9F"/><circle cx="-10" cy="-88" r="14" fill="#B4E0C2" opacity=".7"/></g><path d="M140 120 q12 -22 30 -10 q-6 24 -30 10Z" fill="#5BA67A"/><path d="M150 125 l16 -14" stroke="#FFFFFF" stroke-width="2"/><rect x="150" y="266" width="100" height="10" rx="5" fill="#FF5515" opacity="0"/></svg>