<svg xmlns="http://www.w3.org/2000/svg" viewBox="0 0 400 300" preserveAspectRatio="xMidYMid slice"><rect width="400" height="300" fill="#FFF3EA"/><circle cx="340" cy="60" r="40" fill="#FFC857" opacity=".3"/><circle cx="340" cy="60" r="26" fill="#FFC857"/><g transform="translate(70 56) scale(0.8)" fill="#FFFFFF"><circle cx="0" cy="0" r="16"/><circle cx="20" cy="-8" r="20"/><circle cx="44" cy="0" r="15"/><rect x="-16" y="0" width="76" height="16" rx="8"/></g><path d="M0 234 Q90 174 200 216 T400 204 V300 H0Z" fill="#8CCB9F"/><path d="M0 268 Q120 228 240 256 T400 242 V300 H0Z" fill="#5BA67A"/><path d="M60 250 V120 H150 V250" stroke="#2B2A3C" stroke-width="8" fill="none" stroke-linejoin="round"/><path d="M80 120 L100 250 M130 120 L110 250" stroke="#2B2A3C" stroke-width="0"/><path d="M85 120 V210" stroke="#FF5515" stroke-width="4"/><path d="M125 120 V210" stroke="#FF5515" stroke-width="4"/><rect x="76" y="206" width="58" height="10" rx="5" fill="#FF5515"/><path d="M210 130 H250 L330 244" stroke="#FF5515" stroke-width="14" fill="none" stroke-linecap="round" stroke-linejoin="round"/><path d="M210 130 V250 M250 130 V250" stroke="#2B2A3C" stroke-width="7"/><g transform="translate(110 207) scale(0.5)"><rect x="-9" y="-38" width="7" height="38" rx="3" fill="#2B2A3C"/><rect x="2" y="-38" width="7" height="38" rx="3" fill="#2B2A3C"/><rect x="-13" y="-72" width="26" height="40" rx="10" fill="#4F9FD0"/><path d="M-12 -64 L-15 -42" stroke="#4F9FD0" stroke-width="9" stroke-linecap="round"/><path d="M12 -64 L15 -42" stroke="#4F9FD0" stroke-width="9" stroke-linecap="round"/><circle cx="-15" cy="-38" r="5" fill="#F2C19B"/><circle cx="15" cy="-38" r="5" fill="#F2C19B"/><circle cx="0" cy="-86" r="13" fill="#F2C19B"/><path d="M-13 -87 A13 13 0 0 1 13 -87 Q0 -96 -13 -87 Z" fill="#111222"/><circle cx="-4.5" cy="-85" r="1.6" fill="#111222"/><circle cx="4.5" cy="-85" r="1.6" fill="#111222"/></g><g transform="translate(270 262) scale(0.8)"><rect x="-9" y="-38" width="7" height="38" rx="3" fill="#2B2A3C"/><rect x="2" y="-38" width="7" height="38" rx="3" fill="#2B2A3C"/><rect x="-13" y="-72" width="26" height="40" rx="10" fill="#FFC857"/><path d="M-12 -66 L-26 -86" stroke="#FFC857" stroke-width="9" stroke-linecap="round"/><path d="M12 -66 L26 -86" stroke="#FFC857" stroke-width="9" stroke-linecap="round"/><circle cx="-26" cy="-88" r="5" fill="#8D5A3B"/><circle cx="26" cy="-88" r="5" fill="#8D5A3B"/><circle cx="0" cy="-86" r="13" fill="#8D5A3B"/><path d="M-14 -86 A14 14 0 0 1 14 -86 L14 -76 L9 -80 L-9 -80 L-14 -76 Z" fill="#111222"/><circle cx="-14" cy="-76" r="5" fill="#111222"/><circle cx="14" cy="-76" r="5" fill="#111222"/><circle cx="-4.5" cy="-85" r="1.6" fill="#111222"/><circle cx="4.5" cy="-85" r="1.6" fill="#111222"/></g><g transform="translate(340 266) scale(0.7)"><rect x="-9" y="-38" width="7" height="38" rx="3" fill="#2B2A3C"/><rect x="2" y="-38" width="7" height="38" rx="3" fill="#2B2A3C"/><rect x="-13" y="-72" width="26" height="40" rx="10" fill="#FF5515"/><path d="M12 -64 L14 -42" stroke="#FF5515" stroke-width="9" stroke-linecap="round"/><path d="M-12 -64 L-34 -56" stroke="#FF5515" stroke-width="9" stroke-linecap="round"/><circle cx="14" cy="-38" r="5" fill="#C98F66"/><circle cx="-38" cy="-55" r="5" fill="#C98F66"/><circle cx="0" cy="-86" r="13" fill="#C98F66"/><path d="M-13 -87 A13 13 0 0 1 13 -87 Q0 -96 -13 -87 Z" fill="#111222"/><circle cx="-4.5" cy="-85" r="1.6" fill="#111222"/><circle cx="4.5" cy="-85" r="1.6" fill="#111222"/></g><g transform="translate(380 256) scale(0.5)"><rect x="-6" y="-50" width="12" height="50" rx="4" fill="#9A6A4F"/><circle cx="0" cy="-78" r="36" fill="#5BA67A"/><circle cx="-24" cy="-58" r="22" fill="#5BA67A"/><circle cx="24" cy="-60" r="22" fill="#5BA67A"/><circle cx="-10" cy="-88" r="14" fill="#8CCB9F" opacity=".7"/></g></svg>