<svg xmlns="http://www.w3.org/2000/svg" viewBox="0 0 400 300" preserveAspectRatio="xMidYMid slice"><rect width="400" height="300" fill="#FFF3EA"/><circle cx="250" cy="130" r="100" fill="#FFD9C2" opacity=".6"/><ellipse cx="130" cy="238" rx="46" ry="14" fill="#FFC857"/><rect x="84" y="238" width="92" height="12" fill="#E6A93A"/><ellipse cx="130" cy="238" rx="46" ry="14" fill="#FFC857"/><ellipse cx="130" cy="224" rx="46" ry="14" fill="#FFC857"/><rect x="84" y="224" width="92" height="12" fill="#E6A93A"/><ellipse cx="130" cy="224" rx="46" ry="14" fill="#FFC857"/><ellipse cx="130" cy="210" rx="46" ry="14" fill="#FFC857"/><rect x="84" y="210" width="92" height="12" fill="#E6A93A"/><ellipse cx="130" cy="210" rx="46" ry="14" fill="#FFC857"/><ellipse cx="130" cy="196" rx="46" ry="14" fill="#FFC857"/><rect x="84" y="196" width="92" height="12" fill="#E6A93A"/><ellipse cx="130" cy="196" rx="46" ry="14" fill="#FFC857"/><ellipse cx="130" cy="182" rx="46" ry="14" fill="#FFC857"/><rect x="84" y="182" width="92" height="12" fill="#E6A93A"/><ellipse cx="130" cy="182" rx="46" ry="14" fill="#FFC857"/><ellipse cx="260" cy="250" rx="70" ry="16" fill="#9A6A4F"/><path d="M260 248 V160" stroke="#5BA67A" stroke-width="8" stroke-linecap="round"/><path d="M260 190 Q220 190 214 150 Q256 146 260 190Z" fill="#5BA67A"/><path d="M260 170 Q300 170 306 126 Q264 124 260 170Z" fill="#8CCB9F"/><circle cx="320" cy="70" r="26" fill="#FFC857"/><text x="320" y="80" text-anchor="middle" font-family="Noto Sans KR,sans-serif" font-weight="900" font-size="28" fill="#FFFFFF">+</text><polygon points="70.0,69.0 72.9,76.0 80.5,76.6 74.7,81.5 76.5,88.9 70.0,85.0 63.5,88.9 65.3,81.5 59.5,76.6 67.1,76.0" fill="#FF8A4C"/></svg>